<svg width="21" height="22" viewBox="0 0 21 22" fill="none" xmlns="http://www.w3.org/2000/svg">
<path d="M17.176 5.73819L5.23819 17.676C6.68548 18.8183 8.51313 19.5 10.5 19.5C15.1944 19.5 19 15.6944 19 11C19 9.01313 18.3183 7.18548 17.176 5.73819ZM3.82397 16.2618L15.7618 4.32397C14.3145 3.1817 12.4869 2.5 10.5 2.5C5.80558 2.5 2 6.30558 2 11C2 12.9869 2.6817 14.8145 3.82397 16.2618ZM10.5 21.5C4.70101 21.5 0 16.799 0 11C0 5.20101 4.70101 0.5 10.5 0.5C16.299 0.5 21 5.20101 21 11C21 16.799 16.299 21.5 10.5 21.5Z" fill="white"/>
</svg>
