<svg width="86" height="80" viewBox="0 0 86 80" fill="none" xmlns="http://www.w3.org/2000/svg">
<path fill-rule="evenodd" clip-rule="evenodd" d="M7.94022 73.9977L42.9998 8.25275L78.0593 73.9977H7.94022ZM39.4703 2.12016C40.9761 -0.70362 45.0234 -0.703614 46.5293 2.12016L84.9219 74.1155C86.3428 76.7799 84.412 79.9977 81.3924 79.9977H4.60709C1.5875 79.9977 -0.343268 76.7799 1.07758 74.1155L39.4703 2.12016ZM41.4415 30.0125C40.3369 30.0125 39.4415 30.908 39.4415 32.0125V51.576H45.8102V32.0125C45.8102 30.9079 44.9148 30.0125 43.8102 30.0125H41.4415ZM42.6258 67.7528C44.973 67.7528 46.8758 65.8201 46.8758 63.4359C46.8758 61.0517 44.973 59.1189 42.6258 59.1189C40.2786 59.1189 38.3758 61.0517 38.3758 63.4359C38.3758 65.8201 40.2786 67.7528 42.6258 67.7528Z" fill="#FFB026"/>
</svg>
