<svg width="32" height="32" viewBox="0 0 32 32" fill="none" xmlns="http://www.w3.org/2000/svg">
<path fill-rule="evenodd" clip-rule="evenodd" d="M10.5333 4.00006C9.57603 4.00006 8.79999 4.7761 8.79999 5.73339V12.4001C8.79999 15.9677 11.3947 18.9292 14.8 19.5005V25.5999H11.1995C10.5367 25.5999 9.99949 26.1372 9.99949 26.7999C9.99949 27.4627 10.5367 27.9999 11.1995 27.9999H20.7995C21.4622 27.9999 21.9995 27.4627 21.9995 26.7999C21.9995 26.1372 21.4622 25.5999 20.7995 25.5999H17.2V19.5005C20.6052 18.9292 23.2 15.9677 23.2 12.4001V5.73339C23.2 4.7761 22.4239 4.00006 21.4667 4.00006H18L19.6 7.60006L17.2 11.2001L18.4 14.8001L14.8 11.2001L16 7.60006L13.6 4.00006H10.5333Z" fill="black"/>
</svg>
