<svg width="213" height="46" viewBox="0 0 213 46" fill="none" xmlns="http://www.w3.org/2000/svg">
<mask id="mask0_368_4709" style="mask-type:alpha" maskUnits="userSpaceOnUse" x="0" y="1" width="43" height="44">
<circle cx="21.1902" cy="23.0007" r="21.1902" fill="white"/>
</mask>
<g mask="url(#mask0_368_4709)">
<rect width="42.3804" height="42.3804" transform="translate(0 1.81055)" fill="#FC3F1D"/>
<path d="M24.1762 35.7358H28.6033V10.3076H22.1639C15.688 10.3076 12.2853 13.6371 12.2853 18.5398C12.2853 22.4546 14.1513 24.7596 17.4808 27.1378L11.7 35.7358H16.4929L22.9323 26.1134L20.7004 24.6133C17.993 22.7839 16.6758 21.357 16.6758 18.2837C16.6758 15.5762 18.5784 13.7468 22.2005 13.7468H24.1762V35.7358Z" fill="white"/>
</g>
<g clip-path="url(#clip0_368_4709)">
<mask id="mask1_368_4709" style="mask-type:alpha" maskUnits="userSpaceOnUse" x="45" y="1" width="44" height="44">
<ellipse cx="67.1023" cy="23.0007" rx="21.1902" ry="21.1902" fill="white"/>
</mask>
<g mask="url(#mask1_368_4709)">
<rect width="42.3804" height="42.3804" transform="translate(45.9121 1.81055)" fill="url(#paint0_linear_368_4709)"/>
<path d="M45.9121 38.5164L56.0284 26.4416L53.551 35.8973L61.2276 38.6784L72.6333 22.4196L70.1344 31.7172L76.3533 35.3158L88.2925 23.3668V13.534L79.825 22.0171L81.7041 11.3394L73.8758 8.48242L62.618 24.5454L63.7387 17.2555L57.6048 13.7179L45.9121 27.6604V38.5164Z" fill="black"/>
</g>
</g>
<path d="M114.594 37.4C111.634 37.4 109.06 36.8133 106.874 35.64C104.714 34.4667 103.034 32.7867 101.834 30.6C100.66 28.3867 100.074 25.7467 100.074 22.68C100.074 19.6133 100.647 16.9867 101.794 14.8C102.94 12.5867 104.594 10.8933 106.754 9.72C108.914 8.54667 111.514 7.96 114.554 7.96C116.234 7.96 117.807 8.13333 119.274 8.48C120.767 8.8 121.994 9.26667 122.954 9.88V14.24C121.914 13.5733 120.674 13.0533 119.234 12.68C117.794 12.3067 116.274 12.12 114.674 12.12C111.474 12.12 109.087 13 107.514 14.76C105.967 16.52 105.194 19.16 105.194 22.68C105.194 29.7467 108.447 33.28 114.954 33.28C118.127 33.28 120.794 32.4933 122.954 30.92V35.2C122.047 35.8933 120.847 36.44 119.354 36.84C117.887 37.2133 116.3 37.4 114.594 37.4ZM126.798 16.24H131.438V24.84H133.398L139.998 16.24H144.838L137.038 26.28L145.198 37H139.678L133.238 28.56H131.438V37H126.798V16.24ZM145.882 32.72C146.762 32.88 147.469 32.72 148.002 32.24C148.562 31.7333 148.989 30.8667 149.282 29.64C149.442 28.8933 149.576 27.96 149.682 26.84C149.789 25.72 149.869 24.3067 149.922 22.6C149.976 20.8933 150.002 18.7733 150.002 16.24H164.922V37H160.282V20H154.242C154.189 22.6933 154.096 24.9067 153.962 26.64C153.829 28.3733 153.629 29.8533 153.362 31.08C152.829 33.4 151.962 35.04 150.762 36C149.589 36.9333 147.962 37.28 145.882 37.04V32.72ZM176.659 19.68C174.365 19.68 172.045 20.32 169.699 21.6V17.72C170.712 17.16 171.912 16.7067 173.299 16.36C174.685 16.0133 176.059 15.84 177.419 15.84C180.085 15.84 182.139 16.4 183.579 17.52C185.045 18.64 185.779 20.4 185.779 22.8V33.64C185.779 34.0933 185.792 34.68 185.819 35.4C185.872 36.0933 185.925 36.6267 185.979 37H181.659C181.579 36.6267 181.499 36.1067 181.419 35.44C181.365 34.7467 181.339 34.1467 181.339 33.64L181.299 33.4C181.005 34.04 180.579 34.6667 180.019 35.28C179.485 35.8933 178.792 36.4 177.939 36.8C177.085 37.2 176.019 37.4 174.739 37.4C172.952 37.4 171.432 36.8933 170.179 35.88C168.952 34.84 168.339 33.3333 168.339 31.36C168.339 29.12 169.179 27.4267 170.859 26.28C172.539 25.1333 174.912 24.56 177.979 24.56H181.139V23.28C181.139 21.9467 180.792 21.0133 180.099 20.48C179.405 19.9467 178.259 19.68 176.659 19.68ZM181.139 29V27.6H178.259C176.392 27.6 175.032 27.8933 174.179 28.48C173.352 29.04 172.939 29.84 172.939 30.88C172.939 31.7867 173.192 32.5067 173.699 33.04C174.232 33.5467 175.005 33.8 176.019 33.8C177.005 33.8 177.832 33.6 178.499 33.2C179.165 32.7733 179.685 32.28 180.059 31.72C180.459 31.16 180.739 30.6267 180.899 30.12C181.059 29.5867 181.139 29.2133 181.139 29ZM191.939 42.92H187.859V33.24H189.619C190.446 32.52 191.073 31.32 191.499 29.64C191.873 28.28 192.139 26.5467 192.299 24.44C192.459 22.3333 192.593 19.6 192.699 16.24H207.899V33.24H211.019V42.92H206.979L206.619 37H192.299L191.939 42.92ZM195.539 30.56C195.273 31.6 194.939 32.4933 194.539 33.24H203.259V20H196.699C196.619 22.3733 196.486 24.4133 196.299 26.12C196.113 27.8267 195.859 29.3067 195.539 30.56Z" fill="black"/>
<defs>
<linearGradient id="paint0_linear_368_4709" x1="21.1902" y1="-10.0848" x2="21.1902" y2="46.4033" gradientUnits="userSpaceOnUse">
<stop stop-color="#FFE55B"/>
<stop offset="1" stop-color="#FFCC00"/>
</linearGradient>
<clipPath id="clip0_368_4709">
<rect x="45.9121" y="1.81055" width="42.3804" height="42.3804" rx="21.1902" fill="white"/>
</clipPath>
</defs>
</svg>
