<svg width="28" height="28" viewBox="0 0 28 28" fill="none" xmlns="http://www.w3.org/2000/svg">
<path d="M2.33447 6.29932V10.5H4.66781V7.00002H8.16781V4.66669H3.96781C3.53487 4.66712 3.11979 4.83924 2.81359 5.14531C2.50739 5.45137 2.33509 5.86639 2.33447 6.29932Z" fill="#212121"/>
<path d="M25.6667 6.29932C25.666 5.86639 25.4937 5.45137 25.1875 5.14531C24.8814 4.83924 24.4663 4.66712 24.0333 4.66669H19.8333V7.00002H23.3333V10.5H25.6667V6.29932Z" fill="#212121"/>
<path d="M23.3333 17.5H25.6667V21.7C25.6662 22.1331 25.4939 22.5482 25.1877 22.8544C24.8815 23.1606 24.4664 23.3329 24.0333 23.3334H19.8333V21H23.3333V17.5Z" fill="#212121"/>
<path d="M2.33447 21.7C2.33497 22.1331 2.50721 22.5482 2.81341 22.8544C3.11961 23.1606 3.53477 23.3329 3.96781 23.3334H8.16781V21H4.66781V17.5H2.33447V21.7Z" fill="#212121"/>
<path d="M6.99772 9.32997H9.33105V18.6633H6.99772V9.32997Z" fill="#212121"/>
<path d="M15.1655 9.32997H12.8322V18.6633H15.1655V9.32997Z" fill="#212121"/>
<path d="M18.6644 9.32997H20.9977V18.6633H18.6644V9.32997Z" fill="#212121"/>
<path d="M11.6651 9.33033H10.4984V18.6637H11.6651V9.33033Z" fill="#212121"/>
<path d="M16.3333 9.33033H17.5V18.6637H16.3333V9.33033Z" fill="#212121"/>
</svg>
