<svg width="37" height="30" viewBox="0 0 37 30" fill="none" xmlns="http://www.w3.org/2000/svg">
<path d="M30.5 7.5H26V10.5H30.5V7.5Z" fill="#212121"/>
<path d="M6.5 13.5H11V16.5H6.5V13.5Z" fill="#212121"/>
<path d="M24.5 22.5V19.5H12.5V22.5H24.5Z" fill="#212121"/>
<path d="M17 13.5H12.5V16.5H17V13.5Z" fill="#212121"/>
<path d="M23 13.5H18.5V16.5H23V13.5Z" fill="#212121"/>
<path d="M30.5 13.5H24.5V16.5H30.5V13.5Z" fill="#212121"/>
<path d="M18.5 7.5H14V10.5H18.5V7.5Z" fill="#212121"/>
<path d="M12.5 7.5H6.5V10.5H12.5V7.5Z" fill="#212121"/>
<path d="M24.5 7.5H20V10.5H24.5V7.5Z" fill="#212121"/>
<path fill-rule="evenodd" clip-rule="evenodd" d="M23.75 0C28.6602 0 31.1152 0 32.9188 1.10522C33.9279 1.72357 34.7764 2.57208 35.3948 3.58118C36.5 5.38477 36.5 7.83984 36.5 12.75V17.25C36.5 22.1602 36.5 24.6152 35.3948 26.4188C34.7764 27.4279 33.9279 28.2764 32.9188 28.8948C31.1152 30 28.6602 30 23.75 30H13.25C8.33984 30 5.88477 30 4.08118 28.8948C3.07208 28.2764 2.22357 27.4279 1.60522 26.4188C0.5 24.6152 0.5 22.1602 0.5 17.25V12.75C0.5 7.83984 0.5 5.38477 1.60522 3.58118C2.22357 2.57208 3.07208 1.72357 4.08118 1.10522C5.88477 0 8.33984 0 13.25 0H23.75ZM33.5 12.75V17.25C33.5 19.7631 33.4969 21.4374 33.3753 22.7153C33.2581 23.9487 33.0521 24.5001 32.8368 24.8513C32.4658 25.4568 31.9568 25.9658 31.3513 26.3368C31.0001 26.5521 30.4487 26.7581 29.2153 26.8753C27.9374 26.9969 26.2631 27 23.75 27H13.25C10.7369 27 9.06256 26.9969 7.78467 26.8753C6.55127 26.7581 5.99994 26.5521 5.64874 26.3368C5.04321 25.9658 4.53418 25.4568 4.16321 24.8513C3.94788 24.5001 3.74188 23.9487 3.62469 22.7153C3.50311 21.4374 3.5 19.7631 3.5 17.25V12.75C3.5 10.2369 3.50311 8.56256 3.62469 7.28467C3.74188 6.05127 3.94788 5.49994 4.16321 5.14874C4.53418 4.54321 5.04321 4.03418 5.64874 3.66321C5.99994 3.44788 6.55127 3.24188 7.78467 3.12469C9.06256 3.00311 10.7369 3 13.25 3H23.75C26.2631 3 27.9374 3.00311 29.2153 3.12469C30.4487 3.24188 31.0001 3.44788 31.3513 3.66321C31.9568 4.03418 32.4658 4.54321 32.8368 5.14874C33.0521 5.49994 33.2581 6.05127 33.3753 7.28467C33.4969 8.56256 33.5 10.2369 33.5 12.75Z" fill="#212121"/>
</svg>
