<svg width="32" height="32" viewBox="0 0 32 32" fill="none" xmlns="http://www.w3.org/2000/svg">
<path fill-rule="evenodd" clip-rule="evenodd" d="M17.1757 4.40388C16.6566 4.13839 16.0824 4 15.5 4C14.9176 4 14.3434 4.13839 13.8243 4.40388L5.12043 8.85758C4.78308 9.03062 4.49989 9.29409 4.30215 9.61886C4.10442 9.94364 3.99985 10.3171 4 10.6979V21.7941C4 22.8811 4.60786 23.8756 5.57057 24.3712L13.8226 28.5953C14.3422 28.8613 14.917 29 15.5 29C16.083 29 16.6578 28.8613 17.1774 28.5953L25.4294 24.3712C25.9022 24.1292 26.2991 23.7603 26.5763 23.3055C26.8535 22.8507 27.0002 22.3276 27 21.7941V10.6979C27 9.92145 26.5663 9.2111 25.8779 8.85758L17.1757 4.40388ZM14.9414 6.61256C15.1145 6.52406 15.3059 6.47793 15.5 6.47793C15.6941 6.47793 15.8855 6.52406 16.0586 6.61256L23.3463 10.3427L20.9346 11.5552L13.0406 7.58557L14.9414 6.6109V6.61256ZM10.3086 8.98313L7.65207 10.3427L15.5 14.2876L18.1795 12.9412L10.3086 8.98313ZM6.46429 12.515V21.7941C6.46429 21.9494 6.55136 22.0915 6.68936 22.1625L14.2679 26.0413V16.4401L6.46429 12.515ZM24.3106 22.1625L16.7321 26.0413V16.4401L24.5357 12.5167V21.7958C24.5357 21.8721 24.5147 21.9469 24.475 22.012C24.4352 22.077 24.3783 22.128 24.3106 22.1625Z" fill="black"/>
</svg>
