<svg width="20" height="20" viewBox="0 0 20 20" fill="none" xmlns="http://www.w3.org/2000/svg">
<path fill-rule="evenodd" clip-rule="evenodd" d="M8.8881 0.499999C8.8881 0.223857 9.11196 0 9.3881 0H10.6103C10.8865 0 11.1103 0.223858 11.1103 0.5V9.36554C11.1107 9.37332 11.1109 9.38115 11.1109 9.38902V10.6112C11.1109 10.8874 10.887 11.1112 10.6109 11.1112H0.499755C0.223613 11.1112 -0.000244141 10.8874 -0.000244141 10.6112V9.38902C-0.000244141 9.11288 0.223614 8.88902 0.499756 8.88902H8.8881V0.499999ZM14.5447 0.111247C13.9372 0.111247 13.4447 0.603732 13.4447 1.21125V5.45569C13.4447 6.0632 13.9372 6.55569 14.5447 6.55569H18.7892C19.3967 6.55569 19.8892 6.06321 19.8892 5.45569V1.21125C19.8892 0.603735 19.3967 0.111247 18.7892 0.111247H14.5447ZM15.4447 4.55569V2.11125H17.8892V4.55569H15.4447ZM1.21141 13.4446C0.603898 13.4446 0.11141 13.9371 0.11141 14.5446V18.789C0.11141 19.3965 0.603895 19.889 1.21141 19.889H5.45585C6.06337 19.889 6.55585 19.3965 6.55585 18.789V14.5446C6.55585 13.9371 6.06337 13.4446 5.45585 13.4446H1.21141ZM2.11141 17.889V15.4446H4.55585V17.889H2.11141ZM0.11141 1.21125C0.11141 0.603732 0.603898 0.111247 1.21141 0.111247H5.45585C6.06337 0.111247 6.55585 0.603735 6.55585 1.21125V5.45569C6.55585 6.06321 6.06337 6.55569 5.45585 6.55569H1.21141C0.603895 6.55569 0.11141 6.0632 0.11141 5.45569V1.21125ZM2.11141 2.11125V4.55569H4.55585V2.11125H2.11141ZM9.3881 13.3333C9.11196 13.3333 8.8881 13.5572 8.8881 13.8333V19.5C8.8881 19.7761 9.11196 20 9.3881 20H10.6103C10.8865 20 11.1103 19.7761 11.1103 19.5V13.8333C11.1103 13.5572 10.8865 13.3333 10.6103 13.3333H9.3881ZM13.8331 8.88875C13.5569 8.88875 13.3331 9.11261 13.3331 9.38875V9.38902V10.6112V15.0554C13.3331 15.3316 13.5569 15.5554 13.8331 15.5554H15.0553C15.3315 15.5554 15.5553 15.3316 15.5553 15.0554V11.1112H19.4998C19.7759 11.1112 19.9998 10.8874 19.9998 10.6112V9.38902C19.9998 9.11288 19.7759 8.88902 19.4998 8.88902H15.072L15.0553 8.88875H13.8331ZM17.7781 13.8333C17.7781 13.5572 18.0019 13.3333 18.2781 13.3333H19.5003C19.7764 13.3333 20.0003 13.5572 20.0003 13.8333V19.5C20.0003 19.7761 19.7764 20 19.5003 20H19.4998H18.2781H13.8331C13.5569 20 13.3331 19.7761 13.3331 19.5V18.2778C13.3331 18.0016 13.5569 17.7778 13.8331 17.7778H17.7781V13.8333Z" fill="black"/>
</svg>
