<svg width="24" height="23" viewBox="0 0 24 23" fill="none" xmlns="http://www.w3.org/2000/svg">
<path fill-rule="evenodd" clip-rule="evenodd" d="M19.6973 0.535796L23.4318 0.12085L23.0169 3.85537C22.6332 7.30831 21.0858 10.5279 18.6292 12.9845L16.0557 15.5711C16.972 16.4874 17.1141 17.923 16.3953 19.0012L14.2341 22.2431C13.709 23.0306 12.5947 23.141 11.9254 22.4717L10.4276 20.9739L10.8519 18.0041L5.5486 12.7008L2.57875 13.125L1.08101 11.6273C0.411687 10.958 0.522032 9.84363 1.30962 9.31857L4.55143 7.15737C5.62963 6.43857 7.0653 6.58073 7.98159 7.49702L10.5682 4.92348C13.0248 2.46686 16.2444 0.919457 19.6973 0.535796ZM21.2279 3.65659L21.3944 2.15831L19.8961 2.32479C16.8494 2.66331 14.0086 4.02867 11.841 6.19628L9.26743 8.76981C8.56089 9.47636 7.41535 9.47636 6.7088 8.76981C6.39922 8.46023 5.91417 8.4122 5.54989 8.65506L2.61257 10.6133L3.21514 11.2159L6.18499 10.7916L12.7611 17.3677L12.3368 20.3375L12.9394 20.9401L14.8976 18.0028C15.1405 17.6385 15.0924 17.1535 14.7829 16.8439C14.0763 16.1373 14.0763 14.9918 14.7829 14.2852L17.3564 11.7117C19.524 9.5441 20.8894 6.70331 21.2279 3.65659Z" fill="white"/>
<path d="M5.30337 14.8906L3.21729 20.3709L8.69771 18.2845L5.30337 14.8906Z" fill="white"/>
</svg>
