<svg width="634" height="275" viewBox="0 0 634 275" fill="none" xmlns="http://www.w3.org/2000/svg">
<g clip-path="url(#clip0_91_5031)">
<path d="M36.4006 96.5539L582.477 16.4491L604.662 166.059L58.5863 246.164L36.4006 96.5539Z" fill="#E1C9ED" stroke="black" stroke-width="5.74275" stroke-linejoin="round"/>
<path d="M284.384 38.8532H24.8039C16.9303 38.8532 10.6814 46.6757 11.4312 55.476L27.4285 232.74C28.0534 240.003 33.4275 245.451 39.9263 245.451H299.507C307.38 245.451 313.629 237.629 312.88 228.828L296.882 51.5647C296.132 44.1613 290.883 38.8532 284.384 38.8532Z" fill="#FDF3E8" stroke="black" stroke-width="5.74275" stroke-miterlimit="10"/>
<path d="M121.991 168.285L108.477 172.019L111.605 177.371L120.114 176.997L124.368 175.13L121.991 168.285Z" fill="#FED5BD"/>
<path d="M294.275 38.8509H33.6175C25.7112 38.8509 19.4363 46.4878 20.1893 55.2355L36.2529 229.219C36.8804 236.3 42.2768 241.715 48.8026 241.715H309.46C317.367 241.715 323.641 234.078 322.888 225.331L306.825 51.3477C306.072 44.1274 300.801 38.8509 294.275 38.8509Z" fill="#FDF3E8" stroke="black" stroke-width="5.74275" stroke-miterlimit="10"/>
<path d="M33.2646 58.4909L49.5319 234.303L311.686 238.057L294.793 58.4909H33.2646Z" fill="#FED42B" stroke="black" stroke-width="5.74275" stroke-linecap="round" stroke-linejoin="round"/>
<path d="M409.041 222.424H50.0342C42.7765 222.424 36.645 228.273 36.3947 235.492C36.1445 242.71 41.7755 248.56 49.0332 248.56H408.04C415.297 248.56 421.429 242.71 421.679 235.492C421.929 228.273 416.298 222.424 409.041 222.424Z" fill="#FDF3E8" stroke="black" stroke-width="5.74275" stroke-miterlimit="10"/>
<path d="M409.039 222.424H347.599H328.328H203.195C195.938 222.424 189.806 228.273 189.556 235.492C189.306 242.71 194.937 248.56 202.194 248.56H327.327H346.723H408.163C415.421 248.56 421.552 242.71 421.803 235.492C421.928 228.273 416.297 222.424 409.039 222.424Z" fill="#FDF3E8" stroke="black" stroke-width="5.74275" stroke-miterlimit="10"/>
<path d="M60.1708 235.492C60.2959 232.381 57.7932 229.892 54.79 229.892C51.6617 229.892 49.0339 232.381 48.9088 235.492C48.7837 238.604 51.2863 241.093 54.2895 241.093C57.4178 241.093 60.0456 238.604 60.1708 235.492Z" fill="#FDF3E8" stroke="black" stroke-width="5.74275" stroke-miterlimit="10"/>
<path d="M87.4491 235.492C87.5742 232.381 85.0715 229.892 82.0684 229.892C78.94 229.892 76.3122 232.381 76.1871 235.492C76.062 238.604 78.5646 241.093 81.5678 241.093C84.6961 241.093 87.3239 238.604 87.4491 235.492Z" fill="#FDF3E8" stroke="black" stroke-width="5.74275" stroke-miterlimit="10"/>
<path d="M344.102 222.424H321.453H314.32H268.146C265.519 222.424 263.266 224.539 263.141 227.277C263.016 230.015 265.143 232.131 267.771 232.131H313.945H321.078H343.727C346.354 232.131 348.607 230.015 348.732 227.277C348.857 224.539 346.855 222.424 344.102 222.424Z" fill="#FDF3E8" stroke="black" stroke-width="5.74275" stroke-miterlimit="10"/>
<path d="M160.781 108.423C161.032 110.415 162.783 111.908 164.911 111.908H275.403C278.031 111.908 280.033 109.668 279.783 107.303L276.654 83.1586C276.404 81.1673 274.652 79.6738 272.525 79.6738H162.033C159.405 79.6738 157.403 81.9141 157.653 84.2788L160.781 108.423Z" fill="#FDF3E8" stroke="black" stroke-width="5.74275" stroke-miterlimit="10"/>
<path d="M174.672 90.7002H217.342" stroke="black" stroke-width="5.74275" stroke-miterlimit="10" stroke-linecap="round" stroke-linejoin="round"/>
<path d="M175.426 99.8355H197.324" stroke="black" stroke-width="5.74275" stroke-miterlimit="10" stroke-linecap="round" stroke-linejoin="round"/>
<path d="M251.499 95.8538L256.504 100.085L261.76 91.6222" fill="#FDF3E8"/>
<path d="M251.499 95.8538L256.504 100.085L261.76 91.6222" stroke="black" stroke-width="5.74275" stroke-linecap="round" stroke-linejoin="round"/>
<path d="M166.282 148.747C166.533 150.738 168.284 152.232 170.412 152.232H280.904C283.532 152.232 285.534 149.991 285.284 147.627L282.155 123.482C281.905 121.491 280.153 119.997 278.026 119.997H167.534C164.906 119.997 162.904 122.238 163.154 124.602L166.282 148.747Z" fill="#FDF3E8" stroke="black" stroke-width="5.74275" stroke-miterlimit="10"/>
<path d="M183.053 131.024H225.723" stroke="black" stroke-width="5.74275" stroke-miterlimit="10" stroke-linecap="round" stroke-linejoin="round"/>
<path d="M183.798 140.159H205.696" stroke="black" stroke-width="5.74275" stroke-miterlimit="10" stroke-linecap="round" stroke-linejoin="round"/>
<path d="M256.632 136.177L261.637 140.408L267.018 131.821" fill="#FDF3E8"/>
<path d="M256.632 136.177L261.637 140.408L267.018 131.821" stroke="black" stroke-width="5.74275" stroke-linecap="round" stroke-linejoin="round"/>
<path d="M171.789 188.947C172.039 190.938 173.791 192.432 175.919 192.432H286.411C289.039 192.432 291.041 190.192 290.791 187.827L287.662 163.682C287.412 161.691 285.66 160.198 283.533 160.198H173.04C170.413 160.198 168.411 162.438 168.661 164.802L171.789 188.947Z" fill="#FDF3E8" stroke="black" stroke-width="5.74275" stroke-miterlimit="10"/>
<path d="M187.304 171.347H229.974" stroke="black" stroke-width="5.74275" stroke-miterlimit="10" stroke-linecap="round" stroke-linejoin="round"/>
<path d="M188.058 180.357H209.956" stroke="black" stroke-width="5.74275" stroke-miterlimit="10" stroke-linecap="round" stroke-linejoin="round"/>
<path d="M261.762 176.375L266.892 180.607L272.148 172.144" fill="#FDF3E8"/>
<path d="M261.762 176.375L266.892 180.607L272.148 172.144" stroke="black" stroke-width="5.74275" stroke-linecap="round" stroke-linejoin="round"/>
<path d="M141.256 120.495C139.004 98.964 119.608 81.54 97.96 81.54C76.312 81.54 60.5452 98.964 62.9228 120.495C65.3003 142.026 84.5708 159.45 106.219 159.45C127.867 159.45 143.508 142.026 141.256 120.495Z" fill="#37AF80" stroke="black" stroke-width="5.74275" stroke-linejoin="round"/>
<path d="M461.999 57.175L606.849 101.495L621.179 54.8797L476.33 10.5599L461.999 57.175Z" fill="#BA9C80" stroke="black" stroke-width="5.09587" stroke-linejoin="round"/>
<path d="M447.668 103.79L592.517 148.11L606.848 101.495L461.999 57.175L447.668 103.79Z" fill="#BA9C80" stroke="black" stroke-width="5.09587" stroke-linejoin="round"/>
<path d="M419.007 197.02L563.856 241.34L592.518 148.11L447.668 103.79L419.007 197.02Z" fill="#BA9C80" stroke="black" stroke-width="5.09587" stroke-linejoin="round"/>
<path d="M473.909 213.819L508.953 224.541L537.615 131.311L502.57 120.589L473.909 213.819Z" fill="#FED42B" stroke="black" stroke-width="5.09587" stroke-linejoin="round"/>
<path d="M502.57 120.589L537.615 131.311L566.276 38.081L531.232 27.3585L502.57 120.589Z" fill="#FED42B" stroke="black" stroke-width="5.09587" stroke-linejoin="round"/>
<rect width="89.1572" height="71.9488" transform="matrix(0.999507 -0.0426537 0.04282 0.998664 459.381 138.442)" fill="#29C489" stroke="black" stroke-width="5.09587" stroke-linecap="round" stroke-linejoin="round"/>
<path d="M495.165 178.64C501.611 184.32 510.456 183.943 516.392 177.734" stroke="black" stroke-width="5.09587" stroke-linecap="round" stroke-linejoin="round"/>
<ellipse cx="3.61859" cy="3.61308" rx="3.61859" ry="3.61308" transform="matrix(0.999507 -0.0426538 0.0428201 0.998664 485.424 161.122)" fill="black"/>
<ellipse cx="3.61859" cy="3.61308" rx="3.61859" ry="3.61308" transform="matrix(0.999507 -0.0426538 0.0428201 0.998664 501.688 166.994)" fill="black"/>
<ellipse cx="3.61859" cy="3.61308" rx="3.61859" ry="3.61308" transform="matrix(0.999507 -0.0426538 0.0428201 0.998664 517.684 159.745)" fill="black"/>
<path d="M345.611 110.306C345.611 110.306 371.013 122.005 372.264 122.752C373.516 123.499 362.629 226.673 362.629 226.673L353.62 229.785L332.472 205.391L307.32 191.203L296.184 166.312L298.061 151.751L345.611 110.306Z" fill="#FED5BD"/>
<path d="M352.996 99.9776C356.25 96.3684 357.626 91.39 357.001 86.6606C356.5 82.8025 355.624 78.0732 354.748 74.464C350.994 60.2759 352.621 44.8432 359.253 31.7753C361.005 28.166 363.257 24.6813 367.011 23.0633C369.264 22.0677 372.017 21.9432 374.269 23.1877C378.523 25.5524 378.523 31.0285 378.398 35.509C377.773 50.3193 378.398 65.5031 383.279 79.4422C386.532 89.0254 391.788 97.9863 395.041 107.569C395.041 107.694 395.166 107.818 395.166 107.943C398.795 118.397 400.297 129.349 399.921 140.426C399.671 148.018 400.171 157.974 403.675 164.571C404.176 165.566 405.177 166.437 406.053 167.309C421.901 182.851 443.476 203.122 467.092 222.195C467.092 222.195 423.905 233.395 388.039 271.562C374.595 254.552 360.561 234.904 352.246 224.932C352.246 224.932 345.113 217.589 337.48 215.224C329.847 212.86 321.838 210.495 314.455 208.13L313.329 207.881C306.197 206.015 299.439 203.152 293.183 199.294C289.554 197.054 286.551 193.32 284.924 188.84C284.549 187.844 284.173 186.848 283.923 185.853C281.42 178.634 290.43 160.215 292.432 158.099C295.56 154.738 300.065 152.996 304.695 153.37L339.607 156.481C341.734 156.357 343.736 157.601 344.988 159.592C346.364 161.708 346.615 164.322 345.739 166.686C344.738 169.673 342.861 172.162 340.483 173.78C339.232 174.652 337.98 175.149 336.479 175.523C331.599 176.643 321.338 179.008 308.449 176.767" fill="#FED5BD"/>
<path d="M352.996 99.9776C356.25 96.3684 357.626 91.39 357.001 86.6606C356.5 82.8025 355.624 78.0732 354.748 74.464C350.994 60.2759 352.621 44.8432 359.253 31.7753C361.005 28.166 363.257 24.6813 367.011 23.0633C369.264 22.0677 372.017 21.9432 374.269 23.1877C378.523 25.5524 378.523 31.0285 378.398 35.509C377.773 50.3193 378.398 65.5031 383.279 79.4422C386.532 89.0254 391.788 97.9863 395.041 107.569C395.041 107.694 395.166 107.818 395.166 107.943C398.795 118.397 400.297 129.349 399.921 140.426C399.671 148.018 400.171 157.974 403.675 164.571C404.176 165.566 405.177 166.437 406.053 167.309C421.901 182.851 443.476 203.122 467.092 222.195C467.092 222.195 423.905 233.395 388.039 271.562C374.595 254.552 360.561 234.904 352.246 224.932C352.246 224.932 345.113 217.589 337.48 215.224C329.847 212.86 321.838 210.495 314.455 208.13L313.329 207.881C306.197 206.015 299.439 203.152 293.183 199.294C289.554 197.054 286.551 193.32 284.924 188.84C284.549 187.844 284.173 186.848 283.923 185.853C281.42 178.634 290.43 160.215 292.432 158.099C295.56 154.738 300.065 152.996 304.695 153.37L339.607 156.481C341.734 156.357 343.736 157.601 344.988 159.592C346.364 161.708 346.615 164.322 345.739 166.686C344.738 169.673 342.861 172.162 340.483 173.78C339.232 174.652 337.98 175.149 336.479 175.523C331.599 176.643 321.338 179.008 308.449 176.767" stroke="black" stroke-width="5.74275" stroke-miterlimit="10" stroke-linecap="round" stroke-linejoin="round"/>
<path d="M299.567 154.614L287.178 146.897C282.298 143.91 278.544 139.056 276.292 133.083C275.791 131.838 275.416 130.469 274.915 129.224C272.288 121.633 277.293 100.351 283.55 89.8962C285.552 86.5358 289.431 84.669 293.31 85.0423L348.243 90.5184C350.996 90.394 353.624 91.8874 355.251 94.6254C357.003 97.3635 357.378 100.848 356.252 103.835C354.875 107.818 352.498 111.054 349.37 113.169C347.743 114.29 345.991 115.036 344.114 115.41C337.732 116.903 317.21 121.384 303.321 117.65" fill="#FED5BD"/>
<path d="M299.567 154.614L287.178 146.897C282.298 143.91 278.544 139.056 276.292 133.083C275.791 131.838 275.416 130.469 274.915 129.224C272.288 121.633 277.293 100.351 283.55 89.8962C285.552 86.5358 289.431 84.669 293.31 85.0423L348.243 90.5184C350.996 90.394 353.624 91.8874 355.251 94.6254C357.003 97.3635 357.378 100.848 356.252 103.835C354.875 107.818 352.498 111.054 349.37 113.169C347.743 114.29 345.991 115.036 344.114 115.41C337.732 116.903 317.21 121.384 303.321 117.65" stroke="black" stroke-width="5.74275" stroke-miterlimit="10" stroke-linecap="round" stroke-linejoin="round"/>
<path d="M297.44 177.016L285.051 169.299C280.171 166.312 276.417 161.458 274.165 155.484C273.664 154.24 273.289 152.871 272.788 151.626C270.161 144.035 275.166 122.752 281.423 112.298C283.425 108.938 287.304 107.071 291.183 107.444L346.116 112.92C348.869 112.796 351.497 114.289 353.124 117.027C354.876 119.765 355.251 123.25 354.125 126.237C352.748 130.22 350.371 133.456 347.243 135.571C345.616 136.692 343.864 137.438 341.987 137.812C335.605 139.305 315.083 143.786 301.194 140.052" fill="#FED5BD"/>
<path d="M297.44 177.016L285.051 169.299C280.171 166.312 276.417 161.458 274.165 155.484C273.664 154.24 273.289 152.871 272.788 151.626C270.161 144.035 275.166 122.752 281.423 112.298C283.425 108.938 287.304 107.071 291.183 107.444L346.116 112.92C348.869 112.796 351.497 114.289 353.124 117.027C354.876 119.765 355.251 123.25 354.125 126.237C352.748 130.22 350.371 133.456 347.243 135.571C345.616 136.692 343.864 137.438 341.987 137.812C335.605 139.305 315.083 143.786 301.194 140.052" stroke="black" stroke-width="5.74275" stroke-miterlimit="10" stroke-linecap="round" stroke-linejoin="round"/>
<path d="M299.065 194.564L287.553 187.47C283.048 184.732 279.544 180.127 277.417 174.651C277.042 173.531 276.541 172.286 276.166 171.041C273.788 163.947 278.418 144.283 284.174 134.576C286.051 131.464 289.555 129.722 293.184 130.095L344.113 135.198C346.615 135.073 349.118 136.567 350.62 138.932C352.246 141.545 352.622 144.657 351.621 147.519C350.369 151.253 348.117 154.24 345.239 156.231C343.737 157.227 342.111 157.974 340.359 158.347C334.478 159.84 315.457 163.947 302.444 160.463" fill="#FED5BD"/>
<path d="M299.065 194.564L287.553 187.47C283.048 184.732 279.544 180.127 277.417 174.651C277.042 173.531 276.541 172.286 276.166 171.041C273.788 163.947 278.418 144.283 284.174 134.576C286.051 131.464 289.555 129.722 293.184 130.095L344.113 135.198C346.615 135.073 349.118 136.567 350.62 138.932C352.246 141.545 352.622 144.657 351.621 147.519C350.369 151.253 348.117 154.24 345.239 156.231C343.737 157.227 342.111 157.974 340.359 158.347C334.478 159.84 315.457 163.947 302.444 160.463" stroke="black" stroke-width="5.74275" stroke-miterlimit="10" stroke-linecap="round" stroke-linejoin="round"/>
<path d="M322.587 210.619C319.709 209.748 316.956 208.877 314.203 208.005L313.077 207.757C305.945 205.89 299.187 203.027 292.931 199.169C289.302 196.929 286.299 193.195 284.672 188.715C284.297 187.719 283.921 186.723 283.671 185.728C281.168 178.509 290.178 160.09 292.18 157.974C295.308 154.614 299.813 152.871 304.443 153.244L339.355 156.356C341.482 156.231 343.485 157.476 344.736 159.467C346.112 161.583 346.363 164.197 345.487 166.561C344.486 169.548 342.609 172.037 340.231 173.655C338.98 174.527 337.728 175.024 336.227 175.398C331.347 176.518 321.086 178.883 308.197 176.642" fill="#FED5BD"/>
<path d="M322.587 210.619C319.709 209.748 316.956 208.877 314.203 208.005L313.077 207.757C305.945 205.89 299.187 203.027 292.931 199.169C289.302 196.929 286.299 193.195 284.672 188.715C284.297 187.719 283.921 186.723 283.671 185.728C281.168 178.509 290.178 160.09 292.18 157.974C295.308 154.614 299.813 152.871 304.443 153.244L339.355 156.356C341.482 156.231 343.485 157.476 344.736 159.467C346.112 161.583 346.363 164.197 345.487 166.561C344.486 169.548 342.609 172.037 340.231 173.655C338.98 174.527 337.728 175.024 336.227 175.398C331.347 176.518 321.086 178.883 308.197 176.642" stroke="black" stroke-width="5.74275" stroke-miterlimit="10" stroke-linecap="round" stroke-linejoin="round"/>
</g>
<defs>
<clipPath id="clip0_91_5031">
<rect width="634" height="275" fill="white"/>
</clipPath>
</defs>
</svg>
