<svg width="32" height="32" viewBox="0 0 32 32" fill="none" xmlns="http://www.w3.org/2000/svg">
<path d="M10.2834 17H6.32681C5.93799 17 5.56882 17.1587 5.31673 17.4348C5.06464 17.7124 4.95525 18.0769 5.01678 18.4351C5.45687 21.0029 6.95319 23.2405 9.0759 24.7474C9.38097 24.9636 9.7715 25.0465 10.1475 24.9747C10.5227 24.9022 10.8482 24.6828 11.0362 24.3701C11.7994 23.1073 12.5206 21.9203 13 21.1346C11.4191 20.3321 10.3364 18.7869 10.2834 17Z" fill="black"/>
<path d="M15.4006 11.3857C16.2458 11.3857 17.0399 11.6092 17.7356 12L19.7901 8.74403C19.9998 8.41297 20.0551 8.00171 19.9437 7.62287C19.8332 7.24403 19.5666 6.93515 19.2163 6.78584C18.0395 6.27816 16.7505 6 15.3998 6C14.1352 6 12.9275 6.24317 11.8132 6.68771C11.463 6.82765 11.1899 7.12372 11.0688 7.49488C10.9469 7.86689 10.9883 8.2756 11.1826 8.61263C11.9839 10.0068 12.6902 11.2389 13.1128 11.9761C13.7971 11.5998 14.5757 11.3857 15.4006 11.3857Z" fill="black"/>
<path d="M20.5262 16C20.5495 16.1966 20.5639 16.3967 20.5639 16.6002C20.5639 18.4686 19.5386 20.1095 18.0002 21.0342L19.9566 24.3271C20.1818 24.7066 20.5881 24.9565 21.0438 24.9952C21.4977 25.0355 21.8995 24.8191 22.2359 24.5212C24.6354 22.4055 25.7881 19.7008 25.9899 17.6683C26.0249 17.3103 25.9774 16.9505 25.7486 16.6654C25.5163 16.3821 25.1692 16.2078 24.7951 16.1923C23.0908 16.1211 21.5058 16.0472 20.5262 16Z" fill="black"/>
<path d="M15.5004 13C14.6663 13 13.9032 13.2922 13.3026 13.7763C12.5093 14.4188 12 15.4 12 16.4996C12 16.5478 12.0033 16.5943 12.0049 16.6416C12.0677 18.2131 13.1663 19.5159 14.6378 19.8906C14.9128 19.9624 15.2009 20 15.5012 20C15.8203 20 16.1296 19.9559 16.4218 19.8776C17.9064 19.4727 19 18.1151 19 16.4996C18.9992 14.5665 17.4314 13 15.5004 13Z" fill="black"/>
<path d="M28.9982 16.2796C28.9193 11.5065 26.3563 7.33135 22.5472 4.99101C20.4957 3.72973 18.0814 3 15.5008 3C13.0638 3 10.7755 3.64912 8.79952 4.78444C4.74013 7.1147 2 11.4939 2 16.5004C2 16.55 2.00336 16.5978 2.00336 16.6465C2.05542 21.6547 4.85014 26.0146 8.95236 28.3021C10.8922 29.3828 13.126 30 15.4999 30C18.0024 30 20.3496 29.3148 22.3616 28.1215C26.332 25.7686 28.9999 21.4414 28.9999 16.5013C29.0016 16.4257 28.9982 16.3518 28.9982 16.2796ZM21.3573 26.3539C19.6416 27.3783 17.6397 27.9662 15.4999 27.9662C13.4837 27.9662 11.5842 27.4413 9.93655 26.5218C6.45744 24.5845 4.08848 20.8906 4.03641 16.6457C4.03557 16.597 4.03557 16.5491 4.03557 16.4996C4.03557 12.2278 6.38186 8.49439 9.85594 6.52185C11.5237 5.57547 13.4484 5.03468 15.5008 5.03468C17.6682 5.03468 19.6937 5.63929 21.4244 6.6856C24.6659 8.6489 26.8619 12.1707 26.9635 16.2032C26.9668 16.3006 26.9668 16.4005 26.9668 16.5004C26.966 20.684 24.7146 24.3503 21.3573 26.3539Z" fill="black"/>
</svg>
